<svg xmlns="http://www.w3.org/2000/svg" viewBox="0 0 1000 450" width="1000" height="450">
  <defs>
    <filter id="glow">
      <feGaussianBlur stdDeviation="3" result="blur"/>
      <feMerge>
        <feMergeNode in="blur"/>
        <feMergeNode in="SourceGraphic"/>
      </feMerge>
    </filter>
    <filter id="shadow">
      <feDropShadow dx="0" dy="2" stdDeviation="3" flood-color="#000" flood-opacity="0.5"/>
    </filter>
    <linearGradient id="bgGrad" x1="0" y1="0" x2="0" y2="1">
      <stop offset="0%" stop-color="#0f1923"/>
      <stop offset="100%" stop-color="#0a1219"/>
    </linearGradient>
    <radialGradient id="hubGrad" cx="0.5" cy="0.5" r="0.5">
      <stop offset="0%" stop-color="#1e3a4f"/>
      <stop offset="100%" stop-color="#0f1923"/>
    </radialGradient>
  </defs>

  <!-- Background -->
  <rect width="1000" height="450" fill="url(#bgGrad)"/>

  <!-- Subtle radial lines from center -->
  <g opacity="0.03" stroke="#ffffff">
    <line x1="500" y1="215" x2="0" y2="0"/>
    <line x1="500" y1="215" x2="1000" y2="0"/>
    <line x1="500" y1="215" x2="0" y2="450"/>
    <line x1="500" y1="215" x2="1000" y2="450"/>
    <line x1="500" y1="215" x2="0" y2="215"/>
    <line x1="500" y1="215" x2="1000" y2="215"/>
    <line x1="500" y1="215" x2="500" y2="0"/>
    <line x1="500" y1="215" x2="500" y2="450"/>
  </g>

  <!-- Title -->
  <text x="500" y="30" text-anchor="middle" fill="#ffffff" font-family="Segoe UI, Arial, sans-serif" font-size="15" font-weight="700" letter-spacing="2.5">STAGE 1: THE ORACLE NETWORK</text>
  <text x="500" y="48" text-anchor="middle" fill="#607D8B" font-family="Segoe UI, Arial, sans-serif" font-size="10" letter-spacing="1.5">15 DATA SOURCES IN 58 SECONDS</text>

  <!-- Central Hub -->
  <g filter="url(#glow)">
    <circle cx="500" cy="215" r="52" fill="url(#hubGrad)" stroke="#37474F" stroke-width="2"/>
    <circle cx="500" cy="215" r="52" fill="none" stroke="#ffffff" stroke-width="0.5" opacity="0.2"/>
    <circle cx="500" cy="215" r="42" fill="none" stroke="#37474F" stroke-width="1" stroke-dasharray="3 3" opacity="0.5"/>
    <text x="500" y="210" text-anchor="middle" fill="#ffffff" font-family="Segoe UI, Arial, sans-serif" font-size="9" font-weight="700" letter-spacing="1">UNIFIED</text>
    <text x="500" y="224" text-anchor="middle" fill="#ffffff" font-family="Segoe UI, Arial, sans-serif" font-size="9" font-weight="700" letter-spacing="1">PIPELINE</text>
  </g>

  <!-- ==================== SENTIMENT GROUP (LEFT, CYAN) ==================== -->
  <!-- Category label -->
  <text x="130" y="78" text-anchor="middle" fill="#00BCD4" font-family="Segoe UI, Arial, sans-serif" font-size="9" font-weight="700" letter-spacing="2" opacity="0.8">SENTIMENT</text>
  <line x1="70" y1="83" x2="190" y2="83" stroke="#00BCD4" stroke-width="0.5" opacity="0.3"/>

  <!-- Spokes -->
  <line x1="455" y1="190" x2="190" y2="108" stroke="#00BCD4" stroke-width="0.8" opacity="0.25"/>
  <line x1="455" y1="200" x2="190" y2="148" stroke="#00BCD4" stroke-width="0.8" opacity="0.25"/>
  <line x1="455" y1="215" x2="190" y2="188" stroke="#00BCD4" stroke-width="0.8" opacity="0.25"/>
  <line x1="455" y1="230" x2="190" y2="228" stroke="#00BCD4" stroke-width="0.8" opacity="0.25"/>

  <!-- IG.com -->
  <g filter="url(#shadow)">
    <rect x="50" y="93" width="140" height="30" rx="4" fill="#0f1923" stroke="#00BCD4" stroke-width="1"/>
    <circle cx="66" cy="108" r="6" fill="#00BCD4" opacity="0.15"/>
    <text x="66" y="111" text-anchor="middle" fill="#00BCD4" font-family="Segoe UI, Arial, sans-serif" font-size="8">&#10003;</text>
    <text x="125" y="112" text-anchor="middle" fill="#ffffff" font-family="Segoe UI, Arial, sans-serif" font-size="9">IG.com</text>
  </g>
  <!-- Dukascopy -->
  <g filter="url(#shadow)">
    <rect x="50" y="133" width="140" height="30" rx="4" fill="#0f1923" stroke="#00BCD4" stroke-width="1"/>
    <circle cx="66" cy="148" r="6" fill="#00BCD4" opacity="0.15"/>
    <text x="66" y="151" text-anchor="middle" fill="#00BCD4" font-family="Segoe UI, Arial, sans-serif" font-size="8">&#10003;</text>
    <text x="125" y="152" text-anchor="middle" fill="#ffffff" font-family="Segoe UI, Arial, sans-serif" font-size="9">Dukascopy</text>
  </g>
  <!-- Myfxbook -->
  <g filter="url(#shadow)">
    <rect x="50" y="173" width="140" height="30" rx="4" fill="#0f1923" stroke="#00BCD4" stroke-width="1"/>
    <circle cx="66" cy="188" r="6" fill="#00BCD4" opacity="0.15"/>
    <text x="66" y="191" text-anchor="middle" fill="#00BCD4" font-family="Segoe UI, Arial, sans-serif" font-size="8">&#10003;</text>
    <text x="125" y="192" text-anchor="middle" fill="#ffffff" font-family="Segoe UI, Arial, sans-serif" font-size="9">Myfxbook</text>
  </g>
  <!-- FXSSI -->
  <g filter="url(#shadow)">
    <rect x="50" y="213" width="140" height="30" rx="4" fill="#0f1923" stroke="#00BCD4" stroke-width="1"/>
    <circle cx="66" cy="228" r="6" fill="#00BCD4" opacity="0.15"/>
    <text x="66" y="231" text-anchor="middle" fill="#00BCD4" font-family="Segoe UI, Arial, sans-serif" font-size="8">&#10003;</text>
    <text x="125" y="232" text-anchor="middle" fill="#ffffff" font-family="Segoe UI, Arial, sans-serif" font-size="9">FXSSI</text>
  </g>

  <!-- ==================== MACRO GROUP (TOP-RIGHT, GREEN) ==================== -->
  <text x="790" y="78" text-anchor="middle" fill="#4CAF50" font-family="Segoe UI, Arial, sans-serif" font-size="9" font-weight="700" letter-spacing="2" opacity="0.8">MACRO</text>
  <line x1="730" y1="83" x2="855" y2="83" stroke="#4CAF50" stroke-width="0.5" opacity="0.3"/>

  <!-- Spokes -->
  <line x1="545" y1="190" x2="720" y2="108" stroke="#4CAF50" stroke-width="0.8" opacity="0.25"/>
  <line x1="545" y1="200" x2="720" y2="148" stroke="#4CAF50" stroke-width="0.8" opacity="0.25"/>
  <line x1="545" y1="215" x2="720" y2="188" stroke="#4CAF50" stroke-width="0.8" opacity="0.25"/>

  <!-- Economic Calendar -->
  <g filter="url(#shadow)">
    <rect x="720" y="93" width="160" height="30" rx="4" fill="#0f1923" stroke="#4CAF50" stroke-width="1"/>
    <circle cx="736" cy="108" r="6" fill="#4CAF50" opacity="0.15"/>
    <text x="736" y="111" text-anchor="middle" fill="#4CAF50" font-family="Segoe UI, Arial, sans-serif" font-size="8">&#10003;</text>
    <text x="807" y="106" text-anchor="middle" fill="#ffffff" font-family="Segoe UI, Arial, sans-serif" font-size="8.5">Economic Calendar</text>
    <text x="807" y="117" text-anchor="middle" fill="#4CAF50" font-family="Segoe UI, Arial, sans-serif" font-size="6.5" opacity="0.7">304 events</text>
  </g>
  <!-- CFTC/COT -->
  <g filter="url(#shadow)">
    <rect x="720" y="133" width="160" height="30" rx="4" fill="#0f1923" stroke="#4CAF50" stroke-width="1"/>
    <circle cx="736" cy="148" r="6" fill="#4CAF50" opacity="0.15"/>
    <text x="736" y="151" text-anchor="middle" fill="#4CAF50" font-family="Segoe UI, Arial, sans-serif" font-size="8">&#10003;</text>
    <text x="807" y="152" text-anchor="middle" fill="#ffffff" font-family="Segoe UI, Arial, sans-serif" font-size="8.5">CFTC / COT</text>
  </g>
  <!-- Prediction Markets -->
  <g filter="url(#shadow)">
    <rect x="720" y="173" width="160" height="30" rx="4" fill="#0f1923" stroke="#4CAF50" stroke-width="1"/>
    <circle cx="736" cy="188" r="6" fill="#4CAF50" opacity="0.15"/>
    <text x="736" y="191" text-anchor="middle" fill="#4CAF50" font-family="Segoe UI, Arial, sans-serif" font-size="8">&#10003;</text>
    <text x="807" y="186" text-anchor="middle" fill="#ffffff" font-family="Segoe UI, Arial, sans-serif" font-size="8.5">Prediction Markets</text>
    <text x="807" y="197" text-anchor="middle" fill="#4CAF50" font-family="Segoe UI, Arial, sans-serif" font-size="6.5" opacity="0.7">211 markets</text>
  </g>

  <!-- ==================== VOLATILITY GROUP (BOTTOM-LEFT, ORANGE) ==================== -->
  <text x="130" y="288" text-anchor="middle" fill="#FF9800" font-family="Segoe UI, Arial, sans-serif" font-size="9" font-weight="700" letter-spacing="2" opacity="0.8">VOLATILITY</text>
  <line x1="60" y1="293" x2="200" y2="293" stroke="#FF9800" stroke-width="0.5" opacity="0.3"/>

  <!-- Spokes -->
  <line x1="460" y1="240" x2="190" y2="313" stroke="#FF9800" stroke-width="0.8" opacity="0.25"/>
  <line x1="460" y1="245" x2="190" y2="353" stroke="#FF9800" stroke-width="0.8" opacity="0.25"/>
  <line x1="465" y1="250" x2="190" y2="393" stroke="#FF9800" stroke-width="0.8" opacity="0.25"/>

  <!-- CME FX Options -->
  <g filter="url(#shadow)">
    <rect x="50" y="298" width="140" height="30" rx="4" fill="#0f1923" stroke="#FF9800" stroke-width="1"/>
    <circle cx="66" cy="313" r="6" fill="#FF9800" opacity="0.15"/>
    <text x="66" y="316" text-anchor="middle" fill="#FF9800" font-family="Segoe UI, Arial, sans-serif" font-size="8">&#10003;</text>
    <text x="125" y="311" text-anchor="middle" fill="#ffffff" font-family="Segoe UI, Arial, sans-serif" font-size="8.5">CME FX Options</text>
    <text x="125" y="322" text-anchor="middle" fill="#FF9800" font-family="Segoe UI, Arial, sans-serif" font-size="6.5" opacity="0.7">(IV)</text>
  </g>
  <!-- ATR Calculator -->
  <g filter="url(#shadow)">
    <rect x="50" y="338" width="140" height="30" rx="4" fill="#0f1923" stroke="#FF9800" stroke-width="1"/>
    <circle cx="66" cy="353" r="6" fill="#FF9800" opacity="0.15"/>
    <text x="66" y="356" text-anchor="middle" fill="#FF9800" font-family="Segoe UI, Arial, sans-serif" font-size="8">&#10003;</text>
    <text x="125" y="357" text-anchor="middle" fill="#ffffff" font-family="Segoe UI, Arial, sans-serif" font-size="8.5">ATR Calculator</text>
  </g>
  <!-- Currency Strength -->
  <g filter="url(#shadow)">
    <rect x="50" y="378" width="140" height="30" rx="4" fill="#0f1923" stroke="#FF9800" stroke-width="1"/>
    <circle cx="66" cy="393" r="6" fill="#FF9800" opacity="0.15"/>
    <text x="66" y="396" text-anchor="middle" fill="#FF9800" font-family="Segoe UI, Arial, sans-serif" font-size="8">&#10003;</text>
    <text x="125" y="397" text-anchor="middle" fill="#ffffff" font-family="Segoe UI, Arial, sans-serif" font-size="8.5">Currency Strength</text>
  </g>

  <!-- ==================== NEWS GROUP (BOTTOM-CENTER, PURPLE) ==================== -->
  <text x="500" y="320" text-anchor="middle" fill="#9C27B0" font-family="Segoe UI, Arial, sans-serif" font-size="9" font-weight="700" letter-spacing="2" opacity="0.8">NEWS</text>
  <line x1="450" y1="325" x2="550" y2="325" stroke="#9C27B0" stroke-width="0.5" opacity="0.3"/>

  <!-- Spokes -->
  <line x1="485" y1="265" x2="420" y2="343" stroke="#9C27B0" stroke-width="0.8" opacity="0.25"/>
  <line x1="500" y1="267" x2="500" y2="343" stroke="#9C27B0" stroke-width="0.8" opacity="0.25"/>
  <line x1="515" y1="265" x2="580" y2="343" stroke="#9C27B0" stroke-width="0.8" opacity="0.25"/>

  <!-- GDELT -->
  <g filter="url(#shadow)">
    <rect x="350" y="335" width="130" height="30" rx="4" fill="#0f1923" stroke="#9C27B0" stroke-width="1"/>
    <circle cx="366" cy="350" r="6" fill="#9C27B0" opacity="0.15"/>
    <text x="366" y="353" text-anchor="middle" fill="#9C27B0" font-family="Segoe UI, Arial, sans-serif" font-size="8">&#10003;</text>
    <text x="420" y="354" text-anchor="middle" fill="#ffffff" font-family="Segoe UI, Arial, sans-serif" font-size="8.5">GDELT</text>
  </g>
  <!-- Google News -->
  <g filter="url(#shadow)">
    <rect x="435" y="370" width="130" height="30" rx="4" fill="#0f1923" stroke="#9C27B0" stroke-width="1"/>
    <circle cx="451" cy="385" r="6" fill="#9C27B0" opacity="0.15"/>
    <text x="451" y="388" text-anchor="middle" fill="#9C27B0" font-family="Segoe UI, Arial, sans-serif" font-size="8">&#10003;</text>
    <text x="505" y="389" text-anchor="middle" fill="#ffffff" font-family="Segoe UI, Arial, sans-serif" font-size="8.5">Google News</text>
  </g>
  <!-- Finnhub + FinBERT -->
  <g filter="url(#shadow)">
    <rect x="520" y="335" width="140" height="30" rx="4" fill="#0f1923" stroke="#9C27B0" stroke-width="1"/>
    <circle cx="536" cy="350" r="6" fill="#9C27B0" opacity="0.15"/>
    <text x="536" y="353" text-anchor="middle" fill="#9C27B0" font-family="Segoe UI, Arial, sans-serif" font-size="8">&#10003;</text>
    <text x="596" y="354" text-anchor="middle" fill="#ffffff" font-family="Segoe UI, Arial, sans-serif" font-size="8.5">Finnhub + FinBERT</text>
  </g>

  <!-- ==================== INFRASTRUCTURE GROUP (BOTTOM-RIGHT, RED) ==================== -->
  <text x="830" y="288" text-anchor="middle" fill="#F44336" font-family="Segoe UI, Arial, sans-serif" font-size="9" font-weight="700" letter-spacing="2" opacity="0.8">INFRASTRUCTURE</text>
  <line x1="750" y1="293" x2="910" y2="293" stroke="#F44336" stroke-width="0.5" opacity="0.3"/>

  <!-- Spokes -->
  <line x1="540" y1="240" x2="720" y2="313" stroke="#F44336" stroke-width="0.8" opacity="0.25"/>
  <line x1="540" y1="245" x2="720" y2="368" stroke="#F44336" stroke-width="0.8" opacity="0.25"/>

  <!-- TWS Health -->
  <g filter="url(#shadow)">
    <rect x="720" y="298" width="170" height="30" rx="4" fill="#0f1923" stroke="#F44336" stroke-width="1"/>
    <circle cx="736" cy="313" r="6" fill="#F44336" opacity="0.15"/>
    <text x="736" y="316" text-anchor="middle" fill="#F44336" font-family="Segoe UI, Arial, sans-serif" font-size="8">&#10003;</text>
    <text x="812" y="311" text-anchor="middle" fill="#ffffff" font-family="Segoe UI, Arial, sans-serif" font-size="8.5">TWS Health</text>
    <text x="812" y="322" text-anchor="middle" fill="#F44336" font-family="Segoe UI, Arial, sans-serif" font-size="6.5" opacity="0.7">2 instances</text>
  </g>
  <!-- GV Telemetry -->
  <g filter="url(#shadow)">
    <rect x="720" y="353" width="170" height="30" rx="4" fill="#0f1923" stroke="#F44336" stroke-width="1"/>
    <circle cx="736" cy="368" r="6" fill="#F44336" opacity="0.15"/>
    <text x="736" y="371" text-anchor="middle" fill="#F44336" font-family="Segoe UI, Arial, sans-serif" font-size="8">&#10003;</text>
    <text x="812" y="366" text-anchor="middle" fill="#ffffff" font-family="Segoe UI, Arial, sans-serif" font-size="8.5">GV Telemetry</text>
    <text x="812" y="377" text-anchor="middle" fill="#F44336" font-family="Segoe UI, Arial, sans-serif" font-size="6.5" opacity="0.7">32 strategies</text>
  </g>

  <!-- Bottom stats bar -->
  <rect x="200" y="420" width="600" height="24" rx="4" fill="#0f1923" stroke="#37474F" stroke-width="1"/>
  <text x="310" y="436" text-anchor="middle" fill="#4CAF50" font-family="Segoe UI, Arial, sans-serif" font-size="9" font-weight="600">68 successful scrapes</text>
  <line x1="400" y1="425" x2="400" y2="439" stroke="#37474F" stroke-width="0.5"/>
  <text x="460" y="436" text-anchor="middle" fill="#F44336" font-family="Segoe UI, Arial, sans-serif" font-size="9" font-weight="600">0 failures</text>
  <line x1="520" y1="425" x2="520" y2="439" stroke="#37474F" stroke-width="0.5"/>
  <text x="640" y="436" text-anchor="middle" fill="#607D8B" font-family="Segoe UI, Arial, sans-serif" font-size="9">8 pairs x 134 features</text>

  <!-- Corner accents -->
  <path d="M 5 5 L 25 5 L 25 7 L 7 7 L 7 25 L 5 25 Z" fill="#607D8B" opacity="0.3"/>
  <path d="M 995 5 L 975 5 L 975 7 L 993 7 L 993 25 L 995 25 Z" fill="#607D8B" opacity="0.3"/>
  <path d="M 5 445 L 25 445 L 25 443 L 7 443 L 7 425 L 5 425 Z" fill="#607D8B" opacity="0.3"/>
  <path d="M 995 445 L 975 445 L 975 443 L 993 443 L 993 425 L 995 425 Z" fill="#607D8B" opacity="0.3"/>
</svg>