<svg xmlns="http://www.w3.org/2000/svg" viewBox="0 0 850 500" width="850" height="500">
  <defs>
    <linearGradient id="bg2" x1="0" y1="0" x2="0" y2="1">
      <stop offset="0%" stop-color="#0F172A"/>
      <stop offset="100%" stop-color="#1E293B"/>
    </linearGradient>
    <filter id="shadow2">
      <feDropShadow dx="0" dy="2" stdDeviation="2" flood-color="#000" flood-opacity="0.4"/>
    </filter>
  </defs>

  <!-- Background -->
  <rect width="850" height="500" fill="url(#bg2)"/>

  <!-- Grid lines (subtle) -->
  <line x1="0" y1="70" x2="850" y2="70" stroke="#1E293B" stroke-width="1"/>
  <line x1="142" y1="70" x2="142" y2="455" stroke="#1E293B" stroke-width="1"/>
  <line x1="284" y1="70" x2="284" y2="455" stroke="#1E293B" stroke-width="1"/>
  <line x1="426" y1="70" x2="426" y2="455" stroke="#1E293B" stroke-width="1"/>
  <line x1="568" y1="70" x2="568" y2="455" stroke="#1E293B" stroke-width="1"/>
  <line x1="710" y1="70" x2="710" y2="455" stroke="#1E293B" stroke-width="1"/>

  <!-- Title -->
  <text x="425" y="28" text-anchor="middle" font-family="'Segoe UI', sans-serif" font-size="18" font-weight="bold" fill="#E2E8F0">THE THEORY ENGINE</text>
  <text x="425" y="48" text-anchor="middle" font-family="'Segoe UI', sans-serif" font-size="12" fill="#94A3B8">30 Hypotheses x 8 Pairs = 240 Directional Signals Per Cycle</text>

  <!-- Column Headers -->
  <!-- Sentiment (Cyan) -->
  <rect x="6" y="62" rx="4" ry="4" width="130" height="24" fill="#00D4FF" fill-opacity="0.15" stroke="#00D4FF" stroke-width="1"/>
  <text x="71" y="79" text-anchor="middle" font-family="'Segoe UI', sans-serif" font-size="11" font-weight="bold" fill="#00D4FF">SENTIMENT</text>

  <!-- COT/Institutional (Gold) -->
  <rect x="148" y="62" rx="4" ry="4" width="130" height="24" fill="#FFD54F" fill-opacity="0.15" stroke="#FFD54F" stroke-width="1"/>
  <text x="213" y="79" text-anchor="middle" font-family="'Segoe UI', sans-serif" font-size="11" font-weight="bold" fill="#FFD54F">COT / INST</text>

  <!-- Currency Strength (Green) -->
  <rect x="290" y="62" rx="4" ry="4" width="130" height="24" fill="#4ADE80" fill-opacity="0.15" stroke="#4ADE80" stroke-width="1"/>
  <text x="355" y="79" text-anchor="middle" font-family="'Segoe UI', sans-serif" font-size="11" font-weight="bold" fill="#4ADE80">STRENGTH</text>

  <!-- Calendar (Purple) -->
  <rect x="432" y="62" rx="4" ry="4" width="130" height="24" fill="#E879F9" fill-opacity="0.15" stroke="#E879F9" stroke-width="1"/>
  <text x="497" y="79" text-anchor="middle" font-family="'Segoe UI', sans-serif" font-size="11" font-weight="bold" fill="#E879F9">CALENDAR</text>

  <!-- Cross-Factor (Red) -->
  <rect x="574" y="62" rx="4" ry="4" width="130" height="24" fill="#F87171" fill-opacity="0.15" stroke="#F87171" stroke-width="1"/>
  <text x="639" y="79" text-anchor="middle" font-family="'Segoe UI', sans-serif" font-size="11" font-weight="bold" fill="#F87171">CROSS-FACTOR</text>

  <!-- Alternative Data (white/bright) -->
  <rect x="716" y="62" rx="4" ry="4" width="130" height="24" fill="#E2E8F0" fill-opacity="0.1" stroke="#E2E8F0" stroke-width="1"/>
  <text x="781" y="79" text-anchor="middle" font-family="'Segoe UI', sans-serif" font-size="11" font-weight="bold" fill="#E2E8F0">ALT DATA</text>

  <!-- Sentiment theories (6 rows) -->
  <rect x="6" y="94" rx="3" ry="3" width="130" height="22" fill="#00D4FF" fill-opacity="0.06"/>
  <text x="14" y="109" font-family="Consolas, monospace" font-size="9" fill="#00D4FF">1</text>
  <text x="26" y="109" font-family="Consolas, monospace" font-size="9" fill="#94A3B8">retail_bias</text>

  <rect x="6" y="120" rx="3" ry="3" width="130" height="22" fill="#00D4FF" fill-opacity="0.03"/>
  <text x="14" y="135" font-family="Consolas, monospace" font-size="9" fill="#00D4FF">2</text>
  <text x="26" y="135" font-family="Consolas, monospace" font-size="9" fill="#94A3B8">sentiment_momentum</text>

  <rect x="6" y="146" rx="3" ry="3" width="130" height="22" fill="#00D4FF" fill-opacity="0.06"/>
  <text x="14" y="161" font-family="Consolas, monospace" font-size="9" fill="#00D4FF">3</text>
  <text x="26" y="161" font-family="Consolas, monospace" font-size="9" fill="#94A3B8">sentiment_vol</text>

  <rect x="6" y="172" rx="3" ry="3" width="130" height="22" fill="#00D4FF" fill-opacity="0.03"/>
  <text x="14" y="187" font-family="Consolas, monospace" font-size="9" fill="#00D4FF">4</text>
  <text x="26" y="187" font-family="Consolas, monospace" font-size="9" fill="#94A3B8">extreme_sentiment</text>

  <rect x="6" y="198" rx="3" ry="3" width="130" height="22" fill="#00D4FF" fill-opacity="0.06"/>
  <text x="14" y="213" font-family="Consolas, monospace" font-size="9" fill="#00D4FF">5</text>
  <text x="26" y="213" font-family="Consolas, monospace" font-size="9" fill="#94A3B8">sentiment_range</text>

  <rect x="6" y="224" rx="3" ry="3" width="130" height="22" fill="#00D4FF" fill-opacity="0.03"/>
  <text x="14" y="239" font-family="Consolas, monospace" font-size="9" fill="#00D4FF">6</text>
  <text x="26" y="239" font-family="Consolas, monospace" font-size="9" fill="#94A3B8">weighted_sentiment</text>

  <!-- COT theories (6 rows) -->
  <rect x="148" y="94" rx="3" ry="3" width="130" height="22" fill="#FFD54F" fill-opacity="0.06"/>
  <text x="156" y="109" font-family="Consolas, monospace" font-size="9" fill="#FFD54F">7</text>
  <text x="170" y="109" font-family="Consolas, monospace" font-size="9" fill="#94A3B8">seasonal_bias</text>

  <rect x="148" y="120" rx="3" ry="3" width="130" height="22" fill="#FFD54F" fill-opacity="0.03"/>
  <text x="156" y="135" font-family="Consolas, monospace" font-size="9" fill="#FFD54F">8</text>
  <text x="170" y="135" font-family="Consolas, monospace" font-size="9" fill="#94A3B8">ret_inst_diverge</text>

  <rect x="148" y="146" rx="3" ry="3" width="130" height="22" fill="#FFD54F" fill-opacity="0.06"/>
  <text x="156" y="161" font-family="Consolas, monospace" font-size="9" fill="#FFD54F">9</text>
  <text x="170" y="161" font-family="Consolas, monospace" font-size="9" fill="#94A3B8">cot_momentum</text>

  <rect x="148" y="172" rx="3" ry="3" width="130" height="22" fill="#FFD54F" fill-opacity="0.03"/>
  <text x="156" y="187" font-family="Consolas, monospace" font-size="9" fill="#FFD54F">10</text>
  <text x="174" y="187" font-family="Consolas, monospace" font-size="9" fill="#94A3B8">cot_positioning</text>

  <rect x="148" y="198" rx="3" ry="3" width="130" height="22" fill="#FFD54F" fill-opacity="0.06"/>
  <text x="156" y="213" font-family="Consolas, monospace" font-size="9" fill="#FFD54F">11</text>
  <text x="174" y="213" font-family="Consolas, monospace" font-size="9" fill="#94A3B8">cot_commercial</text>

  <rect x="148" y="224" rx="3" ry="3" width="130" height="22" fill="#FFD54F" fill-opacity="0.03"/>
  <text x="156" y="239" font-family="Consolas, monospace" font-size="9" fill="#FFD54F">12</text>
  <text x="174" y="239" font-family="Consolas, monospace" font-size="9" fill="#94A3B8">cot_acceleration</text>

  <!-- Currency Strength theories (4 rows) -->
  <rect x="290" y="94" rx="3" ry="3" width="130" height="22" fill="#4ADE80" fill-opacity="0.06"/>
  <text x="298" y="109" font-family="Consolas, monospace" font-size="9" fill="#4ADE80">13</text>
  <text x="316" y="109" font-family="Consolas, monospace" font-size="9" fill="#94A3B8">relative_strength</text>

  <rect x="290" y="120" rx="3" ry="3" width="130" height="22" fill="#4ADE80" fill-opacity="0.03"/>
  <text x="298" y="135" font-family="Consolas, monospace" font-size="9" fill="#4ADE80">14</text>
  <text x="316" y="135" font-family="Consolas, monospace" font-size="9" fill="#94A3B8">base_momentum</text>

  <rect x="290" y="146" rx="3" ry="3" width="130" height="22" fill="#4ADE80" fill-opacity="0.06"/>
  <text x="298" y="161" font-family="Consolas, monospace" font-size="9" fill="#4ADE80">15</text>
  <text x="316" y="161" font-family="Consolas, monospace" font-size="9" fill="#94A3B8">quote_momentum</text>

  <rect x="290" y="172" rx="3" ry="3" width="130" height="22" fill="#4ADE80" fill-opacity="0.03"/>
  <text x="298" y="187" font-family="Consolas, monospace" font-size="9" fill="#4ADE80">16</text>
  <text x="316" y="187" font-family="Consolas, monospace" font-size="9" fill="#94A3B8">momentum_diff</text>

  <!-- Calendar theories (3 rows) -->
  <rect x="432" y="94" rx="3" ry="3" width="130" height="22" fill="#E879F9" fill-opacity="0.06"/>
  <text x="440" y="109" font-family="Consolas, monospace" font-size="9" fill="#E879F9">17</text>
  <text x="458" y="109" font-family="Consolas, monospace" font-size="9" fill="#94A3B8">upcoming_events</text>

  <rect x="432" y="120" rx="3" ry="3" width="130" height="22" fill="#E879F9" fill-opacity="0.03"/>
  <text x="440" y="135" font-family="Consolas, monospace" font-size="9" fill="#E879F9">18</text>
  <text x="458" y="135" font-family="Consolas, monospace" font-size="9" fill="#94A3B8">event_asymmetry</text>

  <rect x="432" y="146" rx="3" ry="3" width="130" height="22" fill="#E879F9" fill-opacity="0.06"/>
  <text x="440" y="161" font-family="Consolas, monospace" font-size="9" fill="#E879F9">19</text>
  <text x="458" y="161" font-family="Consolas, monospace" font-size="9" fill="#94A3B8">calendar_density</text>

  <!-- Cross-Factor theories (3 rows) -->
  <rect x="574" y="94" rx="3" ry="3" width="130" height="22" fill="#F87171" fill-opacity="0.06"/>
  <text x="582" y="109" font-family="Consolas, monospace" font-size="9" fill="#F87171">20</text>
  <text x="600" y="109" font-family="Consolas, monospace" font-size="9" fill="#94A3B8">sent_cot_agree</text>

  <rect x="574" y="120" rx="3" ry="3" width="130" height="22" fill="#F87171" fill-opacity="0.03"/>
  <text x="582" y="135" font-family="Consolas, monospace" font-size="9" fill="#F87171">21</text>
  <text x="600" y="135" font-family="Consolas, monospace" font-size="9" fill="#94A3B8">str_sent_confirm</text>

  <rect x="574" y="146" rx="3" ry="3" width="130" height="22" fill="#F87171" fill-opacity="0.06"/>
  <text x="582" y="161" font-family="Consolas, monospace" font-size="9" fill="#F87171">22</text>
  <text x="600" y="161" font-family="Consolas, monospace" font-size="9" fill="#94A3B8">multi_factor_trend</text>

  <!-- Alternative Data theories (8 rows) -->
  <rect x="716" y="94" rx="3" ry="3" width="130" height="22" fill="#E2E8F0" fill-opacity="0.04"/>
  <text x="724" y="109" font-family="Consolas, monospace" font-size="9" fill="#E2E8F0">23</text>
  <text x="742" y="109" font-family="Consolas, monospace" font-size="9" fill="#94A3B8">pm_policy_exp</text>

  <rect x="716" y="120" rx="3" ry="3" width="130" height="22" fill="#E2E8F0" fill-opacity="0.02"/>
  <text x="724" y="135" font-family="Consolas, monospace" font-size="9" fill="#E2E8F0">24</text>
  <text x="742" y="135" font-family="Consolas, monospace" font-size="9" fill="#94A3B8">pm_shift_mom</text>

  <rect x="716" y="146" rx="3" ry="3" width="130" height="22" fill="#E2E8F0" fill-opacity="0.04"/>
  <text x="724" y="161" font-family="Consolas, monospace" font-size="9" fill="#E2E8F0">25</text>
  <text x="742" y="161" font-family="Consolas, monospace" font-size="9" fill="#94A3B8">pm_cross_diverge</text>

  <rect x="716" y="172" rx="3" ry="3" width="130" height="22" fill="#E2E8F0" fill-opacity="0.02"/>
  <text x="724" y="187" font-family="Consolas, monospace" font-size="9" fill="#E2E8F0">26</text>
  <text x="742" y="187" font-family="Consolas, monospace" font-size="9" fill="#94A3B8">news_tone</text>

  <rect x="716" y="198" rx="3" ry="3" width="130" height="22" fill="#E2E8F0" fill-opacity="0.04"/>
  <text x="724" y="213" font-family="Consolas, monospace" font-size="9" fill="#E2E8F0">27</text>
  <text x="742" y="213" font-family="Consolas, monospace" font-size="9" fill="#94A3B8">news_momentum</text>

  <rect x="716" y="224" rx="3" ry="3" width="130" height="22" fill="#E2E8F0" fill-opacity="0.02"/>
  <text x="724" y="239" font-family="Consolas, monospace" font-size="9" fill="#E2E8F0">28</text>
  <text x="742" y="239" font-family="Consolas, monospace" font-size="9" fill="#94A3B8">news_volume</text>

  <rect x="716" y="250" rx="3" ry="3" width="130" height="22" fill="#E2E8F0" fill-opacity="0.04"/>
  <text x="724" y="265" font-family="Consolas, monospace" font-size="9" fill="#E2E8F0">29</text>
  <text x="742" y="265" font-family="Consolas, monospace" font-size="9" fill="#94A3B8">news_divergence</text>

  <rect x="716" y="276" rx="3" ry="3" width="130" height="22" fill="#E2E8F0" fill-opacity="0.02"/>
  <text x="724" y="291" font-family="Consolas, monospace" font-size="9" fill="#E2E8F0">30</text>
  <text x="742" y="291" font-family="Consolas, monospace" font-size="9" fill="#94A3B8">news_shock</text>

  <!-- Column counts -->
  <text x="71" y="265" text-anchor="middle" font-family="Consolas, monospace" font-size="11" font-weight="bold" fill="#00D4FF">6</text>
  <text x="213" y="265" text-anchor="middle" font-family="Consolas, monospace" font-size="11" font-weight="bold" fill="#FFD54F">6</text>
  <text x="355" y="210" text-anchor="middle" font-family="Consolas, monospace" font-size="11" font-weight="bold" fill="#4ADE80">4</text>
  <text x="497" y="184" text-anchor="middle" font-family="Consolas, monospace" font-size="11" font-weight="bold" fill="#E879F9">3</text>
  <text x="639" y="184" text-anchor="middle" font-family="Consolas, monospace" font-size="11" font-weight="bold" fill="#F87171">3</text>
  <text x="781" y="314" text-anchor="middle" font-family="Consolas, monospace" font-size="11" font-weight="bold" fill="#E2E8F0">8</text>

  <!-- Output range indicator -->
  <rect x="30" y="360" rx="4" ry="4" width="790" height="36" fill="#0F172A" stroke="#334155" stroke-width="1"/>
  <text x="50" y="378" font-family="'Segoe UI', sans-serif" font-size="10" fill="#94A3B8">Output range:</text>
  <!-- Scale bar -->
  <rect x="140" y="370" rx="2" ry="2" width="200" height="12" fill="none" stroke="#334155" stroke-width="1"/>
  <rect x="140" y="370" rx="2" ry="2" width="100" height="12" fill="#F87171" fill-opacity="0.3"/>
  <rect x="240" y="370" rx="2" ry="2" width="100" height="12" fill="#4ADE80" fill-opacity="0.3"/>
  <text x="140" y="395" font-family="Consolas, monospace" font-size="9" fill="#F87171">-1.0</text>
  <text x="234" y="395" font-family="Consolas, monospace" font-size="9" fill="#94A3B8">0</text>
  <text x="326" y="395" font-family="Consolas, monospace" font-size="9" fill="#4ADE80">+1.0</text>
  <text x="380" y="378" font-family="Consolas, monospace" font-size="9" fill="#94A3B8">bearish</text>
  <text x="440" y="378" font-family="Consolas, monospace" font-size="9" fill="#94A3B8">neutral</text>
  <text x="500" y="378" font-family="Consolas, monospace" font-size="9" fill="#94A3B8">bullish</text>

  <!-- Bottom summary bar -->
  <rect x="30" y="420" rx="6" ry="6" width="790" height="60" fill="#0F172A" stroke="#00D4FF" stroke-width="1.5" filter="shadow2"/>
  <text x="425" y="445" text-anchor="middle" font-family="'Segoe UI', sans-serif" font-size="14" font-weight="bold" fill="#E2E8F0">8 pairs</text>
  <text x="425" y="445" text-anchor="middle" font-family="'Segoe UI', sans-serif" font-size="14" fill="#94A3B8">
    <tspan x="280" dy="0">8 pairs</tspan>
    <tspan fill="#334155"> x </tspan>
    <tspan fill="#FFD54F">30 theories</tspan>
    <tspan fill="#334155"> = </tspan>
    <tspan fill="#00D4FF" font-weight="bold">240 hypotheses</tspan>
  </text>
  <text x="425" y="468" text-anchor="middle" font-family="Consolas, monospace" font-size="10" fill="#94A3B8">+ 104 raw features = 134 dimensions per pair = 1,072 total ML features</text>
</svg>